<svg xmlns="http://www.w3.org/2000/svg" width="148.932" height="148.931" viewBox="0 0 148.932 148.931">
  <path fill="currentColor" id="Subtraction_1" data-name="Subtraction 1" d="M74.391,154.049a73.988,73.988,0,0,1-41.6-12.723A74.682,74.682,0,0,1,5.843,108.56a74.424,74.424,0,0,1,6.856-70.6A74.612,74.612,0,0,1,45.427,10.972,73.862,73.862,0,0,1,74.391,5.117a74.241,74.241,0,0,1,38.134,10.471V26.06H100.662a59.243,59.243,0,0,0-12.537-4.477,59.937,59.937,0,0,0-13.659-1.571A59.3,59.3,0,0,0,41.153,30.181,59.714,59.714,0,0,0,19.573,56.39,59.519,59.519,0,0,0,25.064,112.9a59.713,59.713,0,0,0,26.208,21.579,59.521,59.521,0,0,0,56.507-5.491,59.713,59.713,0,0,0,21.58-26.208,59.6,59.6,0,0,0-2.619-51.8v-10.7h10.969a74.3,74.3,0,0,1-1.5,80.934,74.755,74.755,0,0,1-32.794,26.985A74.128,74.128,0,0,1,74.391,154.049Zm31.722-43.562L67.019,87.03V42.35h11.17V81.445l33.51,19.883-5.585,9.158Z" transform="translate(0 -5.117)"/>
  <path fill="currentColor" id="Icon_awesome-plus" data-name="Icon awesome-plus" d="M39.358,18.9H25.734V5.278A3.028,3.028,0,0,0,22.707,2.25H19.679a3.028,3.028,0,0,0-3.028,3.028V18.9H3.028A3.028,3.028,0,0,0,0,21.929v3.028a3.028,3.028,0,0,0,3.028,3.028H16.651V41.608a3.028,3.028,0,0,0,3.028,3.028h3.028a3.028,3.028,0,0,0,3.028-3.028V27.984H39.358a3.028,3.028,0,0,0,3.028-3.028V21.929A3.028,3.028,0,0,0,39.358,18.9Z" transform="translate(98.44 4.606)"/>
</svg>
