<svg xmlns="http://www.w3.org/2000/svg" width="20.344" height="20.344" viewBox="0 0 20.344 20.344">
  <path id="Icon_awesome-compact-disc" data-name="Icon awesome-compact-disc" d="M10.172.328A10.172,10.172,0,1,0,20.344,10.5,10.17,10.17,0,0,0,10.172.328ZM3.609,10.5H2.3a7.882,7.882,0,0,1,7.875-7.875V3.938A6.571,6.571,0,0,0,3.609,10.5Zm6.563,3.938A3.938,3.938,0,1,1,14.109,10.5,3.939,3.939,0,0,1,10.172,14.438Zm0-5.25A1.313,1.313,0,1,0,11.484,10.5,1.311,1.311,0,0,0,10.172,9.188Z" transform="translate(0 -0.328)" fill="currentColor"/>
</svg>
