<svg xmlns="http://www.w3.org/2000/svg" width="53.341" height="53.341" viewBox="0 0 53.341 53.341">
  <g id="Group_634" data-name="Group 634" transform="translate(2329.38 5455.17)">
    <path id="Icon_material-add-location" fill="currentColor" data-name="Icon material-add-location" d="M18,3A10.512,10.512,0,0,0,7.5,13.5C7.5,21.375,18,33,18,33S28.5,21.375,28.5,13.5A10.512,10.512,0,0,0,18,3Zm6,12H19.5v4.5h-3V15H12V12h4.5V7.5h3V12H24Z" transform="translate(-2320.709 -5446.5)"/>
    <path id="Icon_feather-circle" data-name="Icon feather-circle" d="M53.341,28.171A25.171,25.171,0,1,1,28.171,3,25.171,25.171,0,0,1,53.341,28.171Z" transform="translate(-2330.88 -5456.67)" fill="none" stroke="currentColor" stroke-linecap="round" stroke-linejoin="round" stroke-width="3"/>
  </g>
</svg>
