<svg xmlns="http://www.w3.org/2000/svg" width="30" height="30" viewBox="0 0 30 30">
  <g id="Icon_material-sentiment-neutral" data-name="Icon material-sentiment-neutral" transform="translate(-3 -3)">
    <path fill="currentColor" id="Path_183" data-name="Path 183" d="M13.5,21h9v2.25h-9Z"/>
    <path fill="currentColor" id="Path_184" data-name="Path 184" d="M25.5,14.25A2.25,2.25,0,1,1,23.25,12,2.25,2.25,0,0,1,25.5,14.25Z"/>
    <path fill="currentColor" id="Path_185" data-name="Path 185" d="M15,14.25A2.25,2.25,0,1,1,12.75,12,2.25,2.25,0,0,1,15,14.25Z"/>
    <path fill="currentColor" id="Path_186" data-name="Path 186" d="M17.985,3A15,15,0,1,0,33,18,14.993,14.993,0,0,0,17.985,3ZM18,30A12,12,0,1,1,30,18,12,12,0,0,1,18,30Z"/>
  </g>
</svg>
