<svg xmlns="http://www.w3.org/2000/svg" width="16.402" height="16.406" viewBox="0 0 16.402 16.406">
  <g id="Icon_ionic-ios-timer" data-name="Icon ionic-ios-timer" transform="translate(-2.297 -2.297)">
    <path id="Path_145" data-name="Path 145" d="M10.5,18.7A8.2,8.2,0,0,1,4.807,4.594l-.656-.66,3.027-.575-.6,2.769-.744-.7A7.21,7.21,0,0,0,3.618,10.5a6.882,6.882,0,1,0,7.539-6.854V6.214a.66.66,0,0,1-1.321,0V2.957a.66.66,0,0,1,.66-.66,8.2,8.2,0,0,1,0,16.406Z"/>
    <path id="Path_146" data-name="Path 146" d="M7.215,6.64,11.3,9.573a1.235,1.235,0,0,1-1.436,2.01,1.192,1.192,0,0,1-.287-.287L6.64,7.215a.411.411,0,0,1,.574-.574Z"/>
  </g>
</svg>
