<svg xmlns="http://www.w3.org/2000/svg" width="31.503" height="36" viewBox="0 0 31.503 36">
  <path id="Icon_awesome-snowflake" fill="currentColor" data-name="Icon awesome-snowflake" d="M30.959,24.272,28.582,22.9l1.828-.492a1.088,1.088,0,0,0,.766-1.329L30.9,20.032a1.088,1.088,0,0,0-1.329-.766L24.588,20.6,20.1,18l4.486-2.595,4.978,1.336a1.088,1.088,0,0,0,1.329-.766l.281-1.048A1.088,1.088,0,0,0,30.4,13.6l-1.828-.492,2.377-1.371a1.091,1.091,0,0,0,.4-1.484l-1.09-1.884a1.091,1.091,0,0,0-1.484-.4L26.4,9.337l.492-1.828a1.088,1.088,0,0,0-.766-1.329L25.08,5.9a1.088,1.088,0,0,0-1.329.766l-1.336,4.978L18,14.189V8.74l3.776-3.776a1.129,1.129,0,0,0,0-1.589l-.795-.795a1.129,1.129,0,0,0-1.589,0L18,3.966V1.125A1.128,1.128,0,0,0,16.875,0h-2.25A1.128,1.128,0,0,0,13.5,1.125V3.966L12.115,2.58a1.129,1.129,0,0,0-1.589,0l-.8.795a1.116,1.116,0,0,0,0,1.589L13.5,8.74v5.449L9.084,11.644,7.748,6.666A1.088,1.088,0,0,0,6.42,5.9L5.372,6.18a1.088,1.088,0,0,0-.766,1.329L5.1,9.337,2.721,7.966a1.085,1.085,0,0,0-1.484.4L.148,10.245a1.085,1.085,0,0,0,.4,1.484L2.925,13.1,1.1,13.591a1.09,1.09,0,0,0-.773,1.336L.6,15.975a1.088,1.088,0,0,0,1.329.766l4.978-1.336L11.4,18,6.912,20.595,1.934,19.259A1.088,1.088,0,0,0,.6,20.025L.323,21.073A1.088,1.088,0,0,0,1.09,22.4l1.828.492L.541,24.272a1.091,1.091,0,0,0-.4,1.484L1.23,27.64a1.091,1.091,0,0,0,1.484.4L5.091,26.67,4.6,28.5a1.088,1.088,0,0,0,.766,1.329l1.048.281a1.088,1.088,0,0,0,1.329-.766l1.336-4.978,4.416-2.545v5.449L9.717,31.043a1.116,1.116,0,0,0,0,1.589l.795.795a1.129,1.129,0,0,0,1.589,0l1.385-1.385v2.834A1.128,1.128,0,0,0,14.611,36h2.25a1.128,1.128,0,0,0,1.125-1.125V32.034l1.385,1.385a1.129,1.129,0,0,0,1.589,0l.795-.795a1.129,1.129,0,0,0,0-1.589L18,27.26V21.811l4.416,2.545,1.336,4.978a1.088,1.088,0,0,0,1.329.766l1.048-.281a1.088,1.088,0,0,0,.766-1.329L26.4,26.663l2.377,1.371a1.085,1.085,0,0,0,1.484-.4l1.09-1.884a1.074,1.074,0,0,0-.394-1.477Z" transform="translate(0.002)"/>
</svg>
