<svg
        xmlns="http://www.w3.org/2000/svg"
        width="33"
        height="28.875"
        viewBox="0 0 33 28.875"
      >
        <path
          id="Icon_awesome-toolbox"
          data-name="Icon awesome-toolbox"
          d="M32.4,13.084,29.48,10.167a2.063,2.063,0,0,0-1.459-.6H24.75V4.406a3.094,3.094,0,0,0-3.094-3.094H11.344A3.094,3.094,0,0,0,8.25,4.406V9.563H4.979a2.064,2.064,0,0,0-1.459.6L.6,13.084A2.063,2.063,0,0,0,0,14.542v5.333H8.25V18.844a1.031,1.031,0,0,1,1.031-1.031h2.063a1.031,1.031,0,0,1,1.031,1.031v1.031h8.25V18.844a1.031,1.031,0,0,1,1.031-1.031h2.063a1.031,1.031,0,0,1,1.031,1.031v1.031H33V14.542A2.062,2.062,0,0,0,32.4,13.084ZM20.625,9.563h-8.25V5.438h8.25ZM24.75,22.969A1.031,1.031,0,0,1,23.719,24H21.656a1.031,1.031,0,0,1-1.031-1.031V21.938h-8.25v1.031A1.031,1.031,0,0,1,11.344,24H9.281A1.031,1.031,0,0,1,8.25,22.969V21.938H0v6.188a2.063,2.063,0,0,0,2.063,2.063H30.938A2.063,2.063,0,0,0,33,28.125V21.938H24.75Z"
          transform="translate(0 -1.313)"
        />
      </svg>