<svg xmlns="http://www.w3.org/2000/svg" width="27.848" height="27.848" viewBox="0 0 27.848 27.848">
  <path id="Icon_metro-cross" data-name="Icon metro-cross" d="M31.722,28.283l-9.358-9.358L7.221,3.782h0a.966.966,0,0,0-1.363,0L4.437,5.2a.966.966,0,0,0,0,1.363h0c.012.209.235.161,24.5,24.5a.966.966,0,0,0,1.363,0l1.421-1.421a.964.964,0,0,0,.221-1.019A1.782,1.782,0,0,0,31.722,28.283Z" transform="translate(-4.155 -3.5)"/>
  <path id="Icon_metro-cross-2" data-name="Icon metro-cross" d="M4.437,28.283,13.8,18.924,28.938,3.782h0a.966.966,0,0,1,1.363,0L31.722,5.2a.966.966,0,0,1,0,1.363h0c-.012.209-.235.161-24.5,24.5a.966.966,0,0,1-1.363,0L4.437,29.646a.964.964,0,0,1-.221-1.019A1.782,1.782,0,0,1,4.437,28.283Z" transform="translate(-4.155 -3.5)"/>
</svg>
