<svg xmlns="http://www.w3.org/2000/svg"  viewBox="0 0 17.995 17.995">
  <path id="Icon_metro-cross" data-name="Icon metro-cross" d="M19.33,15.581h0l-5.459-5.459L19.33,4.663h0a.564.564,0,0,0,0-.8L16.751,1.289a.564.564,0,0,0-.8,0h0L10.5,6.748,5.038,1.289h0a.564.564,0,0,0-.8,0L1.664,3.868a.564.564,0,0,0,0,.8h0l5.459,5.459L1.664,15.581h0a.564.564,0,0,0,0,.8l2.579,2.579a.564.564,0,0,0,.8,0h0L10.5,13.5l5.459,5.459h0a.564.564,0,0,0,.8,0l2.579-2.579a.564.564,0,0,0,0-.8Z" transform="translate(-1.5 -1.125)" stroke="currentColor" fill="currentColor"/>
</svg>
