<svg xmlns="http://www.w3.org/2000/svg" width="508.897" height="171.117" viewBox="0 0 508.897 171.117">
  <g id="Layer_2" data-name="Layer 2" transform="translate(0.071 0.001)">
    <g id="Layer_1" data-name="Layer 1">
      <path id="Path_181" data-name="Path 181" d="M101.4,71.14c13.9-13.27,27.54-26.78,40.6-40.87,3.27-3.51,6.48-7.07,9.69-10.63l4.82-5.3c1.61-1.75,3.2-3.51,4.71-5.28.76-.89,1.5-1.77,2.17-2.65A21.537,21.537,0,0,0,165,3.89c.19-.32.28-.68.21-.43a2.51,2.51,0,0,0,.14,1.34,3,3,0,0,0,1.22,1.5,2.58,2.58,0,0,0,.54.24h-.19a9.869,9.869,0,0,0-1.11.17,37.29,37.29,0,0,0-6.06,2c-2.1.86-4.2,1.84-6.29,2.87A203.07,203.07,0,0,0,129.24,26q-2.93,2-5.77,4.07c-1.88,1.38-3.83,2.84-5.47,4.11-3.5,2.8-7.1,6-10.63,9.2C100.29,49.8,93.2,56.31,86.19,62.86,82.76,66,79.35,69.36,76,72.72s-6.74,6.79-10.08,10.22q-10,10.31-19.84,20.85-4.9,5.26-9.74,10.58l-4.79,5.33c-.8.9-1.56,1.75-2.29,2.62S27.75,124.09,27,125c-2.91,3.62-5.69,7.39-8.29,11.25A115,115,0,0,0,11.64,148a45.511,45.511,0,0,0-2.57,5.88c-.17.48-.3.94-.43,1.4s-.23.93-.28,1.18a6,6,0,0,0,0,1.89,6.29,6.29,0,0,0,.57,1.9,5.85,5.85,0,0,0,1,1.49,2.08,2.08,0,0,0,.21.21l.42.29a6,6,0,0,0,.86.47,6.079,6.079,0,0,0,1.93.48,12.16,12.16,0,0,0,5.05-.83,29.65,29.65,0,0,0,5.61-2.8,58,58,0,0,0,5.5-3.89c1.79-1.43,3.54-2.88,5.22-4.45a114.711,114.711,0,0,0,9.53-10.35l2.41-2.78L49,135.35l4.6-5.56c6.17-7.39,12-15.06,18.46-22.36q2.38-2.75,4.87-5.45t5.26-5.19A36.65,36.65,0,0,1,88.26,92a9.85,9.85,0,0,1,2.18-.94,5.13,5.13,0,0,1,1.61-.17,3.16,3.16,0,0,1,.5.07,3,3,0,0,1,.62.19,3.489,3.489,0,0,1,.78.45,3.54,3.54,0,0,1,1.32,2,4.06,4.06,0,0,1-.14,2.46h0a3.21,3.21,0,0,0-2.2-1c-.52.09-.69.36-1.12.62s-.73.54-1.25.9-1.07.74-1.65,1.21a8.17,8.17,0,0,0-1.64,1.63l-.29.45h0a1.229,1.229,0,0,0,0-.13c0-.1,0,0,0,0v.07l-.09.28a6.07,6.07,0,0,0-.26,1,2.16,2.16,0,0,0,.88,2.52,4.52,4.52,0,0,0,3.4.38,4.57,4.57,0,0,0,2.69-2.27,4.21,4.21,0,0,0,.5-1.65,5.721,5.721,0,0,0-.44-1.73c-.27-.74-.6-1.51-.94-2.3l-.27-.62-.14-.36-.1-.25-.08-.29c.66.43-1.88-1.42,2.56-2.47l1.25.34a33.55,33.55,0,0,0,9.72,1.31,14,14,0,0,0,4.44-.87,29.56,29.56,0,0,0,4.32-2.23,34.64,34.64,0,0,0,4-2.85l3.91-3.44q4-3.45,8-6.81c10.73-9,21.64-17.69,32.5-26.45Q171,44.53,179,37.89c5.34-4.45,10.7-8.92,15.64-13.64a47.457,47.457,0,0,0,3.41-3.61c.24-.3.47-.6.65-.87a4.259,4.259,0,0,0,.31-.54s-.14.21.08.84a1.5,1.5,0,0,0,.26.43.581.581,0,0,0,.12.14.88.88,0,0,0,.26.17c.31.13.21,0,0,.09a7.69,7.69,0,0,0-1.88.59c-.71.29-1.44.66-2.16,1-1.46.78-2.9,1.67-4.33,2.6-5.71,3.73-11.2,8-16.6,12.33-10.78,8.74-21.18,18-31.22,27.59-5,4.8-9.93,9.71-14.63,14.77-2.35,2.53-4.65,5.1-6.82,7.74-.54.66-1.07,1.33-1.59,2l-.76,1L119,91.64c-.39.5-.67.78-.94,1.11s-.52.61-.75.9a10.631,10.631,0,0,0-1.12,1.8,8.79,8.79,0,0,0,.5,7.93,14.58,14.58,0,0,0,2.63,3.64,12,12,0,0,0,3.61,2.43,17.35,17.35,0,0,0,9.15,1.17,27.06,27.06,0,0,0,9.36-2.85,1.5,1.5,0,0,1,1.56,2.56h-.08c-.74.54-1.51,1.06-2.3,1.54a22.474,22.474,0,0,1-2.49,1.28,27.43,27.43,0,0,1-5.39,1.85,24.15,24.15,0,0,1-5.85.54,20,20,0,0,1-6-1.18,16.27,16.27,0,0,1-5.48-3.36,19,19,0,0,1-3.86-5,16.69,16.69,0,0,1-2-6.29,13.53,13.53,0,0,1,.11-3.53,12.93,12.93,0,0,1,1.11-3.42A16.63,16.63,0,0,1,112.51,90c.32-.41.66-.81,1-1.17s.63-.71.71-.82l.75-1,.84-1.1c.55-.72,1.12-1.42,1.69-2.12,2.29-2.78,4.66-5.43,7.07-8,4.82-5.18,9.81-10.14,14.89-15,10.17-9.7,20.66-19,31.61-27.89,5.5-4.42,11.07-8.74,17.11-12.69,1.52-1,3.08-1.94,4.75-2.84.84-.45,1.71-.88,2.67-1.29A13.5,13.5,0,0,1,199,15a6.61,6.61,0,0,1,1.37,0,5.35,5.35,0,0,1,2,.53,4.72,4.72,0,0,1,1.11.75,5.1,5.1,0,0,1,.5.53,4.58,4.58,0,0,1,.62,1.06,4.34,4.34,0,0,1,.31,1.9,1.683,1.683,0,0,1-.08.64l-.12.5a7.76,7.76,0,0,1-1.07,2.16,14.864,14.864,0,0,1-1,1.33,51.806,51.806,0,0,1-3.88,4.12c-5.22,5-10.59,9.45-16,13.9s-10.89,8.8-16.35,13.15c-10.92,8.7-21.87,17.33-32.59,26.18q-4,3.31-8,6.7l-4,3.45a38.66,38.66,0,0,1-4.68,3.3A35.092,35.092,0,0,1,112,97.8a19.36,19.36,0,0,1-6.13,1.2A38.62,38.62,0,0,1,94.6,97.45l-1.28-.36c6.68-1.61,2.86-4.32,3.86-3.61-.05-.22-.06-.2-.06-.24h0l.09.22.25.58a27.936,27.936,0,0,1,1,2.61c.17.47.33.95.48,1.52a9.276,9.276,0,0,1,.19,1,5.4,5.4,0,0,1,.06.63v.66a9.09,9.09,0,0,1-1.12,3.75,9.42,9.42,0,0,1-9.56,5,8.91,8.91,0,0,1-3.76-1.3A7.09,7.09,0,0,1,82,104.4a7.89,7.89,0,0,1-.26-4.15,12.061,12.061,0,0,1,.44-1.68l.12-.35.1-.25a3,3,0,0,1,.18-.39l.06-.11c.17-.28.3-.48.45-.7a13.259,13.259,0,0,1,2-2.29,21.392,21.392,0,0,1,2.49-2c.24-.16.49-.31.73-.48a6.144,6.144,0,0,1,.8-.45,10.15,10.15,0,0,1,1.8-.7,6.73,6.73,0,0,1,2.24-.24,5.86,5.86,0,0,1,2.6.82,7.62,7.62,0,0,1,2,1.76,11.618,11.618,0,0,1,.72,1c.11.17.21.35.32.54l.16.29a2.4,2.4,0,0,1,.16.44h0L99,100.11a3.85,3.85,0,1,1-7.7-.11,4,4,0,0,1,.45-1.76,2.8,2.8,0,0,0-.18-3.15h0a.48.48,0,0,0,.18.05h0a1.391,1.391,0,0,0-.2,0,5.47,5.47,0,0,0-1.14.55A32.429,32.429,0,0,0,85.3,100c-1.67,1.64-3.31,3.37-4.9,5.14s-3.09,3.64-4.61,5.49c-6.11,7.38-11.73,15.2-17.65,22.81L53.7,139.2l-2.24,2.85-2.23,2.78a133.718,133.718,0,0,1-9.53,11.28,72.7,72.7,0,0,1-11.52,9.7,38.37,38.37,0,0,1-6.91,3.72,20,20,0,0,1-8.3,1.58,14.23,14.23,0,0,1-4.47-.94,14,14,0,0,1-2.06-1c-.33-.19-.64-.41-1-.61a12.531,12.531,0,0,1-1-.79,13.36,13.36,0,0,1-2.81-3.67,14.41,14.41,0,0,1-1.48-4.25,14.11,14.11,0,0,1-.07-4.54,23.13,23.13,0,0,1,1-4,52,52,0,0,1,3-7,118.33,118.33,0,0,1,7.63-12.68q4.14-6.08,8.75-11.77c1.53-1.89,3.16-3.8,4.77-5.59l4.85-5.4Q35,103.51,40,98.21q9.87-10.6,20-21c6.75-6.91,13.5-13.79,20.64-20.4s14.16-13.1,21.34-19.58c3.6-3.22,7.19-6.44,11-9.52,2-1.57,4-2.9,6-4.29s4-2.71,6.09-4A222.567,222.567,0,0,1,150.59,5.26c2.23-1,4.48-2,6.8-2.88A42.67,42.67,0,0,1,164.75.21,14.13,14.13,0,0,1,166.91,0a7.55,7.55,0,0,1,1.3.09,4.9,4.9,0,0,1,1.64.56,3.7,3.7,0,0,1,1.62,1.87,3.93,3.93,0,0,1,.15,2.15A8.28,8.28,0,0,1,170.69,7a45.531,45.531,0,0,1-4.54,6.18c-3.15,3.76-6.41,7.33-9.69,10.89s-6.59,7.07-9.94,10.55Q126.43,55.6,104.87,75a2.6,2.6,0,0,1-3.54-3.8Z"/>
      <path id="Path_182" data-name="Path 182" d="M251.79,81.59c6.75-6.67,13.65-12.94,20.11-19.6a260.82,260.82,0,0,0,18.32-20.88c2.89-3.65,5.73-7.35,8.45-11.09a120.254,120.254,0,0,0,7.49-11.42c.54-1,1-1.92,1.47-2.86a14.53,14.53,0,0,0,.94-2.62,2.43,2.43,0,0,0,.1-.73l.05.17a1.831,1.831,0,0,0,.27.5s.12.1.12.12h-.13a3.34,3.34,0,0,0-.8-.15,17,17,0,0,0-5.58.75A57.611,57.611,0,0,0,296.47,16c-2.06.89-4.1,1.82-6.14,2.87l-6.12,3.27-3.06,1.63c-1,.54-2,1.08-3,1.69l-6,3.57c-4,2.31-7.86,4.93-11.74,7.48s-7.64,5.27-11.42,8A450.362,450.362,0,0,0,206.07,80a414.557,414.557,0,0,0-38.14,40.64c-3,3.56-5.7,7.28-8.5,10.95l-3.93,5.64c-.68.93-1.26,1.9-1.86,2.86L151.85,143c-.29.47-.63,1-.87,1.41a11.8,11.8,0,0,0-.53,1.07,9.181,9.181,0,0,0-.59,2.26,11.3,11.3,0,0,0,.55,4.94,7.22,7.22,0,0,0,2.39,3.45,4.531,4.531,0,0,0,.67.39l.24.08a.84.84,0,0,0,.26,0h1.11a11.48,11.48,0,0,0,1.26-.09,25.1,25.1,0,0,0,5.73-1.58,57.1,57.1,0,0,0,5.93-2.74,115.146,115.146,0,0,0,11.55-7.09,195.536,195.536,0,0,0,21.53-17.12c6.79-6.24,13.07-13,19.43-19.9,1.6-1.73,3.21-3.48,4.89-5.22l2.41-2.45a23.562,23.562,0,0,0,1.9-2.38,23.33,23.33,0,0,1,2.75-3.25,14.379,14.379,0,0,1,1.9-1.52c.3-.2.67-.43,1-.64a8.064,8.064,0,0,1,1.1-.55,12.87,12.87,0,0,1,2.36-.83,10.4,10.4,0,0,1,1.42-.25,8.37,8.37,0,0,1,.89,0h.74a7.31,7.31,0,0,1,3.61,1.21,5.93,5.93,0,0,1,1.77,1.88,5.281,5.281,0,0,1,.56,1.23,5.919,5.919,0,0,1,.18.67.886.886,0,0,0,.06.38,4.271,4.271,0,0,1,0,.54v.08l-7.82,1.17a3.49,3.49,0,0,0,.35.82c.08.13.16.25.25.37l.1.12.21.23.16.14.18.14h.07a2.54,2.54,0,0,0-.43-.17,4.93,4.93,0,0,0-1.12-.22,3.21,3.21,0,0,0-.91,0,1.35,1.35,0,0,0-.47.18,2.18,2.18,0,0,0-.73,1.29l-.06.32v.08h0a1.611,1.611,0,0,0,0-.31,1.46,1.46,0,0,0-.18-.72c-.12-.16.05.09.18.18h0a1.69,1.69,0,0,0,.64-.11,6.07,6.07,0,0,0,2.17-1.33,5.09,5.09,0,0,0,.77-.85c.14-.22.09-.24.11,0a1.84,1.84,0,0,0,.27.81,1.4,1.4,0,0,0,.42.42,1.48,1.48,0,0,0-.47-.15h.05l1.44-6.79c.32.1.83.25,1.27.36s.92.22,1.38.32a24.591,24.591,0,0,0,2.77.39,15.541,15.541,0,0,0,2.64,0,9.462,9.462,0,0,0,1.22-.15c.37-.08.75-.16,1.2-.3a48.12,48.12,0,0,0,5.55-2.12c1.88-.82,3.75-1.73,5.62-2.67,7.48-3.79,14.81-8.12,22.05-12.56S301.42,67,308.54,62.29c3.57-2.33,7.1-4.74,10.65-7.11s6.9-4.82,10.31-7.35c6.8-5.08,13.5-10.35,20.05-15.74,3.27-2.7,6.52-5.44,9.62-8.24,1.53-1.39,3.08-2.83,4.35-4.19.31-.34.6-.67.77-.89s.14-.23,0,0v.1a3,3,0,0,0-.11.29,2.329,2.329,0,0,0-.08.37,3,3,0,0,0-.06.85,4.348,4.348,0,0,0,.33,1.39,4.231,4.231,0,0,0,.8,1.17,3.76,3.76,0,0,0,1.7,1,3.21,3.21,0,0,0,.52.1,2.36,2.36,0,0,0,.45,0,1.58,1.58,0,0,0,.38,0h.2l-.3.12c-.3.13-.72.35-1.12.57-1.67.91-3.46,2.05-5.22,3.18s-3.52,2.32-5.29,3.5c-3.52,2.38-7,4.81-10.54,7.24L335.38,46l-5.16,3.65c-1.65,1.22-3.31,2.53-4.94,3.84q-4.9,3.95-9.53,8.22c-3.09,2.82-6.05,5.78-8.87,8.82-1.39,1.54-2.79,3.07-4.07,4.67s-2.52,3.23-3.74,4.86c-.63.81-1.11,1.68-1.68,2.52a25.881,25.881,0,0,0-1.55,2.55l-1.4,2.6c-.4.88-.73,1.77-1.1,2.65l-.28.66-.13.33-.06.15c-.06.19-.06.35-.06.23a1.489,1.489,0,0,0-.11-.4l-.08-.16-.06-.12a3.191,3.191,0,0,0-.31-.44,3.25,3.25,0,0,0-.72-.64,2.38,2.38,0,0,0-.55-.28,1.57,1.57,0,0,0-.69-.16h.25a15.8,15.8,0,0,0,2.41-.63c.9-.3,1.83-.65,2.76-1a91.157,91.157,0,0,0,11-5.45,26.5,26.5,0,0,0,2.42-1.54c.35-.25.7-.53.83-.65h0l-.09.13a2.62,2.62,0,0,0-.22.4,3.571,3.571,0,0,0-.25,1.07,2.87,2.87,0,0,0,.12,1.1,2.91,2.91,0,0,0,.37.8,1.862,1.862,0,0,0,.33.41,1.37,1.37,0,0,0,.51.38h-.09c-.12,0-.36,0-.15-.06h.15l.23-.08a1.739,1.739,0,0,0,.35-.19,1.81,1.81,0,0,0,.55-.44,2.78,2.78,0,0,0,.68-1.11,2.579,2.579,0,0,0,.12-.64V82l-.08-.18h0a2.78,2.78,0,0,0,.36.5,4.3,4.3,0,0,0,.66.59,6.59,6.59,0,0,0,1.89,1c.37.08.63.21,1.09.29l1.35.24c1,.1,1.95.25,3,.31,4.08.3,8.33.35,12.56.34s8.5-.14,12.76-.27c8.52-.3,17.06-.75,25.6-1.27s17.07-1.17,25.6-1.88c4.26-.34,8.52-.75,12.78-1.15l13-1.26h-.22a167,167,0,0,1,21.09-1,190.1,190.1,0,0,1,21.06,1.51c7,.9,13.94,2.1,20.8,3.68s13.68,3.45,20.45,5.46a3.506,3.506,0,0,1-2,6.72,2,2,0,0,1-.34-.12h0a192.439,192.439,0,0,0-19.43-6.77,168.4,168.4,0,0,0-20.1-4.44,152.44,152.44,0,0,0-41.07-1.1h-.22a4.2,4.2,0,0,1-.58.07l-.8.09-1.6.18-3.2.35-6.39.69-12.8,1.33-25.6,2.6c-8.55.83-17.1,1.59-25.69,2.19-4.3.3-8.59.57-12.92.75s-8.66.29-13.13.12a30.82,30.82,0,0,1-7.26-1,13.93,13.93,0,0,1-3.85-1.86,11.27,11.27,0,0,1-1.76-1.51A9.189,9.189,0,0,1,306,85l-.19-.38a1.623,1.623,0,0,0-.15-.36v-.11a6,6,0,0,1-.21-.68,6.49,6.49,0,0,1-.23-1.81,5.049,5.049,0,0,1,.24-1.43,4.48,4.48,0,0,1,1.08-1.8,5.221,5.221,0,0,1,.87-.68,6,6,0,0,1,.72-.36,5.3,5.3,0,0,1,.61-.2l.53-.12a8.1,8.1,0,0,1,3,.1,8,8,0,0,1,1.44.47,5.65,5.65,0,0,1,1.85,1.24,5.788,5.788,0,0,1,.59.72,5.382,5.382,0,0,1,.53,1.17,4.841,4.841,0,0,1,.17,1.49,4.24,4.24,0,0,1-.36,1.45,4,4,0,0,1-.41.75c-.14.22-.21.3-.33.46a7.127,7.127,0,0,1-.53.58,14.731,14.731,0,0,1-1.65,1.4c-1,.76-2,1.38-2.94,2a89.1,89.1,0,0,1-11.93,6.16c-1.05.44-2.11.87-3.24,1.26a21.76,21.76,0,0,1-3.79,1,9.8,9.8,0,0,1-1.35.12,6,6,0,0,1-2.28-.39,5.491,5.491,0,0,1-.9-.46,4.7,4.7,0,0,1-1-.9,6.248,6.248,0,0,1-.44-.61l-.16-.29c-.09-.18-.17-.36-.24-.53a6.58,6.58,0,0,1-.45-2,8.73,8.73,0,0,1,.31-2.94c.05-.21.12-.43.18-.61l.17-.41.33-.83c.45-1.1.88-2.22,1.37-3.28l1.63-3.07a31,31,0,0,1,1.77-2.94c.62-.94,1.19-1.95,1.87-2.84,1.33-1.8,2.64-3.64,4.08-5.33s2.87-3.39,4.35-5q4.49-4.88,9.32-9.32t9.9-8.6c1.7-1.38,3.41-2.73,5.19-4.07l5.32-3.78,10.53-7.41c3.52-2.46,7-4.91,10.62-7.34,1.78-1.21,3.58-2.42,5.41-3.61s3.66-2.36,5.74-3.52c.55-.29,1.07-.58,1.75-.88a10.6,10.6,0,0,1,1.2-.46l.18-.06.25-.06.53-.11a6.821,6.821,0,0,1,.79-.07,4.72,4.72,0,0,1,.64,0,4.28,4.28,0,0,1,.72.13,4.53,4.53,0,0,1,2.05,1.19,4.34,4.34,0,0,1,.91,1.33,4.43,4.43,0,0,1,.37,1.58,5.4,5.4,0,0,1-.07,1.06,4.861,4.861,0,0,1-.14.55c-.05.16-.12.37-.17.48l-.13.29a8.177,8.177,0,0,1-.86,1.39,19.383,19.383,0,0,1-1.32,1.55c-1.65,1.77-3.27,3.23-4.91,4.71-3.27,2.93-6.59,5.7-9.94,8.44q-10.05,8.19-20.45,15.89c-3.48,2.56-7,5.1-10.65,7.52s-7.15,4.77-10.77,7.1c-7.18,4.73-14.49,9.28-21.89,13.72s-14.92,8.72-22.78,12.58c-2,1-4,1.89-6,2.76a50.6,50.6,0,0,1-6.5,2.34,17.713,17.713,0,0,1-1.92.43,19.327,19.327,0,0,1-2,.22,22.39,22.39,0,0,1-3.77-.1,30,30,0,0,1-3.58-.57c-.58-.13-1.16-.27-1.74-.44s-1.11-.32-1.81-.56h0a3.5,3.5,0,0,1,1.46-6.78h.12a8.771,8.771,0,0,1,1.68.32,7.54,7.54,0,0,1,1.78.77,5.57,5.57,0,0,1,1.91,1.84,5.63,5.63,0,0,1,.83,2.77,7.26,7.26,0,0,1-1.07,3.9,11.819,11.819,0,0,1-1.86,2.35,13.31,13.31,0,0,1-4.79,3.1,9.14,9.14,0,0,1-3.42.58,7.42,7.42,0,0,1-2-.36,7.31,7.31,0,0,1-1.86-.9,8.17,8.17,0,0,1-2.64-2.83,5.87,5.87,0,0,1-.73-2.7,4.708,4.708,0,0,1,0-.83v-.43l.13-.7a11.7,11.7,0,0,1,1.11-3A9,9,0,0,1,234,93.78a9.3,9.3,0,0,1,3.25-1.6,11.28,11.28,0,0,1,3.21-.33,12.87,12.87,0,0,1,3,.47,11.581,11.581,0,0,1,1.51.54,7.2,7.2,0,0,1,.93.49l.29.19.38.29a2,2,0,0,1,.26.23c.11.11.21.21.3.32l.14.17.29.42a4.919,4.919,0,0,1,.42.94l-7.83,1.17v.55a1.828,1.828,0,0,0,.06.25,2.351,2.351,0,0,0,.19.43,2.17,2.17,0,0,0,.57.62c.39.24.43.18.28.18h-.13l-.31.07a6.7,6.7,0,0,0-1,.36,8.72,8.72,0,0,0-3.5,3.41,31.288,31.288,0,0,1-2.46,3.14l-2.48,2.62c-1.56,1.67-3.11,3.41-4.67,5.15-6.22,7-12.74,14.07-19.72,20.62-3.49,3.32-7.19,6.46-10.9,9.46s-7.56,5.9-11.54,8.63a125.571,125.571,0,0,1-12.45,7.65,66.189,66.189,0,0,1-6.86,3.17,33.65,33.65,0,0,1-7.83,2.12,20.359,20.359,0,0,1-2.25.16h-1.18l-1.23-.12a8.879,8.879,0,0,1-1.47-.28,9.872,9.872,0,0,1-1.42-.49,13.312,13.312,0,0,1-2.38-1.36,16.07,16.07,0,0,1-5.66-7.85,20.23,20.23,0,0,1-.95-9,17.51,17.51,0,0,1,1.19-4.53,20.326,20.326,0,0,1,1-2.1c.35-.59.65-1,1-1.59l1.94-3.09c.65-1,1.28-2.07,2-3l4.15-5.91c2.91-3.79,5.75-7.65,8.83-11.28a448.59,448.59,0,0,1,83.1-77.42c3.9-2.71,7.74-5.51,11.79-8s8-5.2,12.12-7.53l6.17-3.59c1-.62,2.09-1.16,3.15-1.71l3.17-1.64,6.35-3.29c2.16-1.08,4.4-2.08,6.67-3a65,65,0,0,1,7.14-2.42A23.58,23.58,0,0,1,309,5.56a10.69,10.69,0,0,1,2.62.61,8.87,8.87,0,0,1,1.46.71,7,7,0,0,1,1.5,1.29,5.388,5.388,0,0,1,.67.94,4.629,4.629,0,0,1,.48,1.07,6.54,6.54,0,0,1,.33,1.9,9.509,9.509,0,0,1-.31,2.75,20.548,20.548,0,0,1-1.47,4c-.55,1.19-1.16,2.31-1.77,3.39a128.614,128.614,0,0,1-8.11,12c-2.84,3.83-5.77,7.55-8.76,11.23A209.3,209.3,0,0,1,276.11,66.3c-3.48,3.24-7.08,6.35-10.71,9.37l-11,8.85h0a2.008,2.008,0,0,1-2.67-3Z"/>
    </g>
  </g>
</svg>
