<svg xmlns="http://www.w3.org/2000/svg" width="356" height="257.36" viewBox="0 0 356 257.36">
  <g id="Group_3" data-name="Group 3" transform="translate(-568.749 -549.408)">
    <path id="Path_3" data-name="Path 3" d="M710.641,671.972h15.281V738H710.641Z" transform="translate(78.45 67.632)"/>
    <g id="Group_4" data-name="Group 4" transform="translate(568.749 738.473)">
      <path id="Path_1" data-name="Path 1" d="M580.083,737.415a35.494,35.494,0,0,1-11.744-5.518l5.188-11.508a35.1,35.1,0,0,0,10.095,5,37.827,37.827,0,0,0,11.7,1.887q6.508,0,9.621-1.934a5.836,5.836,0,0,0,3.113-5.14,4.914,4.914,0,0,0-1.839-3.915,13.935,13.935,0,0,0-4.716-2.5q-2.879-.941-7.782-2.075a107.059,107.059,0,0,1-12.357-3.586,20.033,20.033,0,0,1-8.254-5.754q-3.445-3.962-3.443-10.563a18.383,18.383,0,0,1,3.113-10.424,20.914,20.914,0,0,1,9.385-7.405,38.308,38.308,0,0,1,15.329-2.736,50.867,50.867,0,0,1,12.357,1.508,36.571,36.571,0,0,1,10.565,4.339l-4.716,11.6a36.819,36.819,0,0,0-18.3-5.189q-6.415,0-9.48,2.075a6.337,6.337,0,0,0-3.065,5.472q0,3.4,3.537,5.047a55.452,55.452,0,0,0,10.8,3.254,107.87,107.87,0,0,1,12.357,3.586A20.462,20.462,0,0,1,619.8,708.6q3.443,3.871,3.443,10.472A18.031,18.031,0,0,1,620.08,729.4,21.248,21.248,0,0,1,610.6,736.8a38.646,38.646,0,0,1-15.375,2.736A54,54,0,0,1,580.083,737.415Z" transform="translate(-568.339 -671.243)"/>
      <path id="Path_2" data-name="Path 2" d="M682.423,674.9a22.624,22.624,0,0,1,9.952,8.3,24.885,24.885,0,0,1,0,25.423,22.213,22.213,0,0,1-9.952,8.3,37.174,37.174,0,0,1-15.234,2.878h-13.3V738H638.608V671.972h28.581A36.682,36.682,0,0,1,682.423,674.9Zm-5.611,29.478q3.583-2.972,3.585-8.442,0-5.568-3.585-8.538t-10.47-2.972H653.89v22.922h12.452Q673.225,707.346,676.812,704.375Z" transform="translate(-529.564 -670.841)"/>
      <path id="Path_4" data-name="Path 4" d="M819.282,671.972V738H806.736l-32.92-40.09V738H758.723V671.972h12.64l32.827,40.091V671.972Z" transform="translate(-463.282 -670.841)"/>
    </g>
    <g id="Group_2" data-name="Group 2" transform="translate(708.121 549.408)">
      <g id="Group_1" data-name="Group 1">
        <path id="Path_5" data-name="Path 5" d="M672.99,656.086h0a32.939,32.939,0,0,1-1.207-46.567l57.076-60.111h0a32.939,32.939,0,0,1,1.206,46.567L672.99,656.086Z" transform="translate(-661.757 -549.408)"/>
        <path id="Path_6" data-name="Path 6" d="M672.363,689.981h0a32.939,32.939,0,0,1-1.206-46.567L728.23,583.3h0a32.937,32.937,0,0,1,1.207,46.567l-57.074,60.111Z" transform="translate(-662.103 -530.704)"/>
      </g>
    </g>
  </g>
</svg>
